<?xml version="1.0" encoding="UTF-8" standalone="no"?>
<svg
   xmlns:dc="http://purl.org/dc/elements/1.1/"
   xmlns:cc="http://creativecommons.org/ns#"
   xmlns:rdf="http://www.w3.org/1999/02/22-rdf-syntax-ns#"
   xmlns:svg="http://www.w3.org/2000/svg"
   xmlns="http://www.w3.org/2000/svg"
   viewBox="0 0 504.07666 798.33722"
   height="798.33722"
   width="504.07666"
   xml:space="preserve"
   id="svg2"
   version="1.1"><metadata
     id="metadata8"><rdf:RDF><cc:Work
         rdf:about=""><dc:format>image/svg+xml</dc:format><dc:type
           rdf:resource="http://purl.org/dc/dcmitype/StillImage" /></cc:Work></rdf:RDF></metadata><defs
     id="defs6" /><g
     transform="matrix(1.3333333,0,0,-1.3333333,0,798.33724)"
     id="g10"><g
       id="g12"><path
         id="path14"
         style="fill:#e0e0e0;fill-opacity:1;fill-rule:nonzero;stroke:none"
         d="m 200.875,598.753 c -6.805,-0.016 -23.187,-0.133 -45.414,-0.852 -5.238,-0.168 -11.399,-0.418 -18.754,-0.918 -1.68,-0.113 -3.992,-0.273 -6.836,-0.519 -0.004,0 -10.664,-0.91 -19.601,-2.281 -20.493,-3.145 -37.352,-9.977 -37.352,-9.977 -22.375,-9.062 -34.902,-21.473 -42,-28.656 C 27.668,552.261 15.957,539.972 8.207,521.534 4.52,512.772 2.203,503.659 1.293,494.202 0.137,482.21 -0.027,443.847 0.004,442.483 0.285,430.847 0.68,299.55 0.949,182.983 c 38.641,-16.781 104.664,-39.25 188.981,-39 83.808,0.246 149.281,22.825 187.488,39.555 -0.371,91.074 -0.773,185.137 -0.797,201.238 -0.004,0.664 -0.023,3.411 -0.023,7.137 0.007,39.203 -1.465,63.527 -1.504,65.883 -0.535,30.723 -2.203,46.058 -4.367,54.637 -2.165,8.586 -7.239,27.488 -26.649,45.734 -16.531,15.539 -36.199,23.773 -45.656,27.73 -11.098,4.649 -19.762,6.778 -22.598,7.442 -8.32,1.953 -15.187,2.765 -21.672,3.383 -7.808,0.742 -22.004,1.867 -49.804,2.027 0,0 -1.207,0.008 -3.473,0.004 z M 377.531,155.386 C 338.699,138.761 272.465,116.507 187.902,116.62 105.051,116.729 39.906,138.269 1.012,154.769 1.195,70.358 1.297,0.233 1.215,0.034 8.234,0.069 15.254,0.104 22.27,0.14 c 0.273,16.523 1.015,62.656 1.503,93.035 15.305,-32.024 318.239,-29.891 331.801,1.086 0.985,-18.344 2.145,-40.629 2.485,-49.106 0.605,-15.23 1.058,-30.285 1.367,-45.156 6.203,0.039 12.41,0.078 18.613,0.117 0.09,1.738 -0.18,73.797 -0.508,155.27 z" /></g></g></svg>