<?xml version="1.0" encoding="UTF-8" standalone="no"?>
<svg
   xmlns:dc="http://purl.org/dc/elements/1.1/"
   xmlns:cc="http://creativecommons.org/ns#"
   xmlns:rdf="http://www.w3.org/1999/02/22-rdf-syntax-ns#"
   xmlns:svg="http://www.w3.org/2000/svg"
   xmlns="http://www.w3.org/2000/svg"
   viewBox="0 0 28.374008 40.642803"
   height="40.642803"
   width="28.374008"
   xml:space="preserve"
   id="svg2"
   version="1.1"><metadata
     id="metadata8"><rdf:RDF><cc:Work
         rdf:about=""><dc:format>image/svg+xml</dc:format><dc:type
           rdf:resource="http://purl.org/dc/dcmitype/StillImage" /></cc:Work></rdf:RDF></metadata><defs
     id="defs6" /><g
     transform="matrix(1.3333333,0,0,-1.3333333,0,40.642804)"
     id="g10"><g
       id="g12"><path
         id="path14"
         style="fill:#e0e0e0;fill-opacity:1;fill-rule:nonzero;stroke:none"
         d="M 0,19.861 H 21.281 V 8.615 H 0 Z" /><path
         id="path16"
         style="fill:#e0e0e0;fill-opacity:1;fill-rule:nonzero;stroke:none"
         d="M 21.281,6.799 20.977,3.131 c 0,0 0.101,-3.129 -3.039,-3.129 H 3.344 c -3.141,0 -3.039,3.129 -3.039,3.129 L 0,6.799 Z" /><path
         id="path18"
         style="fill:#e0e0e0;fill-opacity:1;fill-rule:nonzero;stroke:none"
         d="m 9.645,26.591 v 0.028 c 0,0.453 -0.372,0.824 -0.825,0.824 H 3.973 c -0.453,0 -0.825,-0.371 -0.825,-0.824 v -0.028 c 0,-0.453 0.372,-0.824 0.825,-0.824 H 8.82 c 0.453,0 0.825,0.371 0.825,0.824 M 0,21.677 v 4.832 c 0,4.282 2.434,3.969 2.434,3.969 h 16.414 c 0,0 2.433,0.313 2.433,-3.969 v -4.832 z" /></g></g></svg>