<?xml version="1.0" encoding="UTF-8" standalone="no"?>
<svg
   xmlns:dc="http://purl.org/dc/elements/1.1/"
   xmlns:cc="http://creativecommons.org/ns#"
   xmlns:rdf="http://www.w3.org/1999/02/22-rdf-syntax-ns#"
   xmlns:svg="http://www.w3.org/2000/svg"
   xmlns="http://www.w3.org/2000/svg"
   viewBox="0 0 768 768"
   height="768"
   width="768"
   xml:space="preserve"
   id="svg2"
   version="1.1"><metadata
     id="metadata8"><rdf:RDF><cc:Work
         rdf:about=""><dc:format>image/svg+xml</dc:format><dc:type
           rdf:resource="http://purl.org/dc/dcmitype/StillImage" /></cc:Work></rdf:RDF></metadata><defs
     id="defs6" /><g
     transform="matrix(1.3333333,0,0,-1.3333333,0,768)"
     id="g10"><path
       id="path12"
       style="fill:#ffffff;fill-opacity:1;fill-rule:evenodd;stroke:none"
       d="M 510.402,9.998 H 65.597 v 556.005 h 444.805 z" /><g
       transform="translate(65.5974,10.4301)"
       id="g14"><path
         id="path16"
         style="fill:#e0e0e0;fill-opacity:1;fill-rule:nonzero;stroke:none"
         d="M 0,0 0.222,-0.433 V 0 Z" /></g><path
       id="path18"
       style="fill:#e0e0e0;fill-opacity:1;fill-rule:nonzero;stroke:none"
       d="m 502.32,16.93 h -430 v 541 h 430 z m 8,541.5 v 7.5 H 65.597 l -0.277,0.072 V 558.344 17.656 9.93 h 7.935 429.565 7.5 v 7.5 z" /><path
       id="path20"
       style="fill:#e0e0e0;fill-opacity:1;fill-rule:evenodd;stroke:none"
       d="M 450.214,67.916 H 135.053 v 35.636 h 315.161 z" /><path
       id="path22"
       style="fill:#e0e0e0;fill-opacity:1;fill-rule:evenodd;stroke:none"
       d="M 349.161,149.341 H 135.053 v 35.657 h 214.108 z" /><path
       id="path24"
       style="fill:#e0e0e0;fill-opacity:1;fill-rule:evenodd;stroke:none"
       d="M 320.386,230.796 H 135.052 v 35.639 h 185.334 z" /><path
       id="path26"
       style="fill:#e0e0e0;fill-opacity:1;fill-rule:evenodd;stroke:none"
       d="M 468.747,312.234 H 135.053 v 35.641 h 333.694 z" /><path
       id="path28"
       style="fill:#e0e0e0;fill-opacity:1;fill-rule:evenodd;stroke:none"
       d="M 378.074,393.675 H 135.053 v 35.641 h 243.021 z" /><path
       id="path30"
       style="fill:#e0e0e0;fill-opacity:1;fill-rule:evenodd;stroke:none"
       d="M 349.161,477.512 H 135.053 v 35.641 h 214.108 z" /></g></svg>