<?xml version="1.0" encoding="UTF-8" standalone="no"?>
<svg
   xmlns:dc="http://purl.org/dc/elements/1.1/"
   xmlns:cc="http://creativecommons.org/ns#"
   xmlns:rdf="http://www.w3.org/1999/02/22-rdf-syntax-ns#"
   xmlns:svg="http://www.w3.org/2000/svg"
   xmlns="http://www.w3.org/2000/svg"
   viewBox="0 0 767.99866 768.45599"
   height="768.45599"
   width="767.99866"
   xml:space="preserve"
   id="svg2"
   version="1.1"><metadata
     id="metadata8"><rdf:RDF><cc:Work
         rdf:about=""><dc:format>image/svg+xml</dc:format><dc:type
           rdf:resource="http://purl.org/dc/dcmitype/StillImage" /></cc:Work></rdf:RDF></metadata><defs
     id="defs6"><clipPath
       id="clipPath18"
       clipPathUnits="userSpaceOnUse"><path
         id="path16"
         d="M 0,576.342 H 575.999 V 0 H 0 Z" /></clipPath></defs><g
     transform="matrix(1.3333333,0,0,-1.3333333,0,768.456)"
     id="g10"><g
       id="g12"><g
         clip-path="url(#clipPath18)"
         id="g14"><g
           transform="translate(271.5116,490.0327)"
           id="g20"><path
             id="path22"
             style="fill:#e0e0e0;fill-opacity:1;fill-rule:nonzero;stroke:none"
             d="m 0,0 h -95.707 c -11.331,0 -20.51,9.181 -20.51,20.505 0,11.327 9.179,20.513 20.51,20.513 H 0 c 11.322,0 20.51,-9.186 20.51,-20.513 C 20.51,9.181 11.322,0 0,0 M 199.036,80.642 H -166.06 c -22.135,0 -40.064,-30.357 -40.064,-67.804 v -429.397 c 0,-37.45 17.929,-67.806 40.064,-67.806 h 365.096 c 22.125,0 40.064,30.356 40.064,67.806 V 12.838 c 0,37.447 -17.939,67.804 -40.064,67.804" /></g><g
           transform="translate(525.1243,165.1396)"
           id="g24"><path
             id="path26"
             style="fill:#e0e0e0;fill-opacity:1;fill-rule:nonzero;stroke:none"
             d="m 0,0 c 0,-5.978 -5.666,-10.822 -12.648,-10.822 h -448.953 c -6.983,0 -12.649,4.844 -12.649,10.822 v 10.803 c 0,5.983 5.666,10.822 12.649,10.822 H -12.648 C -5.666,21.625 0,16.786 0,10.803 Z" /></g><g
           transform="translate(525.1243,362.1573)"
           id="g28"><path
             id="path30"
             style="fill:#e0e0e0;fill-opacity:1;fill-rule:nonzero;stroke:none"
             d="m 0,0 c 0,-5.978 -5.666,-10.822 -12.648,-10.822 h -448.953 c -6.983,0 -12.649,4.844 -12.649,10.822 v 10.803 c 0,5.978 5.666,10.822 12.649,10.822 H -12.648 C -5.666,21.625 0,16.781 0,10.803 Z" /></g></g></g></g></svg>