<?xml version="1.0" encoding="UTF-8" standalone="no"?>
<svg
   xmlns:dc="http://purl.org/dc/elements/1.1/"
   xmlns:cc="http://creativecommons.org/ns#"
   xmlns:rdf="http://www.w3.org/1999/02/22-rdf-syntax-ns#"
   xmlns:svg="http://www.w3.org/2000/svg"
   xmlns="http://www.w3.org/2000/svg"
   viewBox="0 0 652.15204 764.66797"
   height="764.66797"
   width="652.15204"
   xml:space="preserve"
   id="svg2"
   version="1.1"><metadata
     id="metadata8"><rdf:RDF><cc:Work
         rdf:about=""><dc:format>image/svg+xml</dc:format><dc:type
           rdf:resource="http://purl.org/dc/dcmitype/StillImage" /></cc:Work></rdf:RDF></metadata><defs
     id="defs6" /><g
     transform="matrix(1.3333333,0,0,-1.3333333,0,764.66797)"
     id="g10"><g
       id="g12"><path
         id="path14"
         style="fill:#e0e0e0;fill-opacity:1;fill-rule:nonzero;stroke:none"
         d="M 4,569.501 V 4.001 h 63.359 v 565.5 z m 72.27,0 v -83.293 h 61.07 v 83.293 z m 69.98,0 V 4.001 h 58.066 v 565.5 z m 66.977,0 v -83.293 h 61.066 v 83.293 z m 69.98,0 V 4.001 h 59.566 v 565.5 z m 68.477,0 v -83.293 h 61.066 v 83.293 z m 69.976,0 V 4.001 h 63.453 v 565.5 z M 76.27,328.396 v -83.29 h 61.07 v 83.29 z m 136.957,0 v -83.29 h 61.066 v 83.29 z m 138.457,0 v -83.29 h 61.066 v 83.29 z M 76.27,87.29 V 4.001 h 61.07 V 87.29 Z m 136.957,0 V 4.001 h 61.066 V 87.29 Z m 138.457,0 V 4.001 H 412.75 V 87.29 Z" /></g></g></svg>