<?xml version="1.0" encoding="UTF-8" standalone="no"?>
<svg
   xmlns:dc="http://purl.org/dc/elements/1.1/"
   xmlns:cc="http://creativecommons.org/ns#"
   xmlns:rdf="http://www.w3.org/1999/02/22-rdf-syntax-ns#"
   xmlns:svg="http://www.w3.org/2000/svg"
   xmlns="http://www.w3.org/2000/svg"
   viewBox="0 0 768 768"
   height="768"
   width="768"
   xml:space="preserve"
   id="svg2"
   version="1.1"><metadata
     id="metadata8"><rdf:RDF><cc:Work
         rdf:about=""><dc:format>image/svg+xml</dc:format><dc:type
           rdf:resource="http://purl.org/dc/dcmitype/StillImage" /></cc:Work></rdf:RDF></metadata><defs
     id="defs6"><clipPath
       id="clipPath18"
       clipPathUnits="userSpaceOnUse"><path
         id="path16"
         d="M 0,576 H 576 V 0 H 0 Z" /></clipPath></defs><g
     transform="matrix(1.3333333,0,0,-1.3333333,0,768)"
     id="g10"><g
       id="g12"><g
         clip-path="url(#clipPath18)"
         id="g14"><g
           transform="translate(286.7275,181.6946)"
           id="g20"><path
             id="path22"
             style="fill:#e0e0e0;fill-opacity:1;fill-rule:nonzero;stroke:none"
             d="m 0,0 c 102.94,0 186.302,83.403 186.302,186.321 0,102.893 -83.362,186.283 -186.302,186.283 -102.872,0 -186.263,-83.39 -186.263,-186.283 C -186.263,83.403 -102.872,0 0,0" /></g><g
           transform="translate(404.1776,189.223)"
           id="g24"><path
             id="path26"
             style="fill:#e0e0e0;fill-opacity:1;fill-rule:nonzero;stroke:none"
             d="m 0,0 c -35.017,-18.784 -75.006,-29.464 -117.475,-29.464 -42.428,0 -82.396,10.68 -117.415,29.464 -19.66,-19.221 -39.432,-38.959 -59.288,-59.223 -35.923,-36.663 -70.161,-73.053 -102.776,-109 h 559.047 c -28.319,32.61 -59.027,66.082 -92.271,100 C 46.273,-44.196 22.947,-21.471 0,0" /></g></g></g></g></svg>