<?xml version="1.0" encoding="UTF-8" standalone="no"?>
<svg
   xmlns:dc="http://purl.org/dc/elements/1.1/"
   xmlns:cc="http://creativecommons.org/ns#"
   xmlns:rdf="http://www.w3.org/1999/02/22-rdf-syntax-ns#"
   xmlns:svg="http://www.w3.org/2000/svg"
   xmlns="http://www.w3.org/2000/svg"
   viewBox="0 0 768 768"
   height="768"
   width="768"
   xml:space="preserve"
   id="svg2"
   version="1.1"><metadata
     id="metadata8"><rdf:RDF><cc:Work
         rdf:about=""><dc:format>image/svg+xml</dc:format><dc:type
           rdf:resource="http://purl.org/dc/dcmitype/StillImage" /></cc:Work></rdf:RDF></metadata><defs
     id="defs6"><clipPath
       id="clipPath18"
       clipPathUnits="userSpaceOnUse"><path
         id="path16"
         d="M 0,576 H 576 V 0 H 0 Z" /></clipPath></defs><g
     transform="matrix(1.3333333,0,0,-1.3333333,0,768)"
     id="g10"><g
       id="g12"><g
         clip-path="url(#clipPath18)"
         id="g14"><g
           transform="translate(418.9883,240.5861)"
           id="g20"><path
             id="path22"
             style="fill:#e5e4e4;fill-opacity:1;fill-rule:nonzero;stroke:none"
             d="m 0,0 -189.738,-3.872 45.014,257.017 155.663,-0.969 z m 85.817,-56.542 c 22.279,0 42.201,-9.82 55.504,-25.26 -3.143,45.992 -1.379,137.86 -5.794,141.337 -2.285,1.8 -80.101,4.632 -94.992,5.15 0,0 0.582,206.421 -2.297,211.693 -3.048,5.583 -199.648,5.399 -203.291,3.389 C -171.949,275.961 -208.316,83.6 -223.72,4.242 v 202.676 c -10.789,0.165 -21.728,0.249 -32.813,0.245 -10.499,-0.004 -20.867,-0.088 -31.1,-0.245 V 83.289 h -31.342 V -87.149 h -18.436 l -71.287,-23.774 v -11.034 h 123.182 c 18.373,-0.006 36.747,-0.012 55.12,-0.017 4.162,37.35 36.159,65.717 73.314,65.432 37.847,-0.291 69.769,-30.223 72.455,-68.416 h 97.99 c 1.298,37.997 33.228,68.416 72.454,68.416" /></g><g
           transform="translate(318.083,109.6267)"
           id="g24"><path
             id="path26"
             style="fill:#e5e4e4;fill-opacity:1;fill-rule:nonzero;stroke:none"
             d="m 0,0 c 0,-31.542 -25.57,-57.112 -57.112,-57.112 -31.543,0 -57.113,25.57 -57.113,57.112 0,31.542 25.57,57.112 57.113,57.112 C -25.57,57.112 0,31.542 0,0" /></g><g
           transform="translate(564.7696,113.2274)"
           id="g28"><path
             id="path30"
             style="fill:#e5e4e4;fill-opacity:1;fill-rule:nonzero;stroke:none"
             d="m 0,0 c 0,-31.542 -25.57,-57.112 -57.112,-57.112 -31.543,0 -57.113,25.57 -57.113,57.112 0,31.542 25.57,57.112 57.113,57.112 C -25.57,57.112 0,31.542 0,0" /></g></g></g></g></svg>