<?xml version="1.0" encoding="UTF-8" standalone="no"?>
<svg
   xmlns:dc="http://purl.org/dc/elements/1.1/"
   xmlns:cc="http://creativecommons.org/ns#"
   xmlns:rdf="http://www.w3.org/1999/02/22-rdf-syntax-ns#"
   xmlns:svg="http://www.w3.org/2000/svg"
   xmlns="http://www.w3.org/2000/svg"
   viewBox="0 0 768.19598 768.33734"
   height="768.33734"
   width="768.19598"
   xml:space="preserve"
   id="svg2"
   version="1.1"><metadata
     id="metadata8"><rdf:RDF><cc:Work
         rdf:about=""><dc:format>image/svg+xml</dc:format><dc:type
           rdf:resource="http://purl.org/dc/dcmitype/StillImage" /></cc:Work></rdf:RDF></metadata><defs
     id="defs6"><clipPath
       id="clipPath20"
       clipPathUnits="userSpaceOnUse"><path
         id="path18"
         d="M 0,576.253 H 576.147 V 0 H 0 Z" /></clipPath></defs><g
     transform="matrix(1.3333333,0,0,-1.3333333,0,768.33733)"
     id="g10"><path
       id="path12"
       style="fill:#e5e4e4;fill-opacity:1;fill-rule:nonzero;stroke:none"
       d="M 570.48,252.595 H 201.5 v 184.991 h 368.98 z" /><g
       id="g14"><g
         clip-path="url(#clipPath20)"
         id="g16"><g
           transform="translate(128.6595,187.612)"
           id="g22"><path
             id="path24"
             style="fill:#e5e4e4;fill-opacity:1;fill-rule:nonzero;stroke:none"
             d="m 0,0 c 0,-24.071 -19.514,-43.585 -43.585,-43.585 -24.071,0 -43.585,19.514 -43.585,43.585 0,24.071 19.514,43.585 43.585,43.585 C -19.514,43.585 0,24.071 0,0" /></g><g
           transform="translate(480.9216,187.612)"
           id="g26"><path
             id="path28"
             style="fill:#e5e4e4;fill-opacity:1;fill-rule:nonzero;stroke:none"
             d="m 0,0 c 0,-24.071 -19.514,-43.585 -43.585,-43.585 -24.071,0 -43.585,19.514 -43.585,43.585 0,24.071 19.514,43.585 43.585,43.585 C -19.514,43.585 0,24.071 0,0" /></g><g
           transform="translate(504.8038,187.612)"
           id="g30"><path
             id="path32"
             style="fill:#e5e4e4;fill-opacity:1;fill-rule:nonzero;stroke:none"
             d="M 0,0 66.25,13.238 V 42.096 H -20.3 C -20.3,42.096 0.795,26.565 0,0" /></g><g
           transform="translate(142.5906,294.3891)"
           id="g34"><path
             id="path36"
             style="fill:#e5e4e4;fill-opacity:1;fill-rule:nonzero;stroke:none"
             d="M 0,0 -115.43,-5.971 -84.383,70.452 0,74.035 Z M 26.27,-64.681 V 94.335 c 0,0 -27.066,0.198 -74.83,-3.185 -47.765,-3.383 -50.949,-7.165 -50.949,-7.165 l -37.988,-90.206 v -65.426 -32.278 l 7.339,0.038 8.228,-0.224 c 1.399,34.375 29.696,61.816 64.414,61.816 35.612,0 64.482,-28.87 64.482,-64.482 0,-0.283 -0.018,-0.562 -0.022,-0.844 l 3.656,-0.1 217.873,0.944 c 0.399,29.955 15.921,42.096 15.921,42.096 z" /></g></g></g></g></svg>