<?xml version="1.0" encoding="UTF-8" standalone="no"?>
<!DOCTYPE svg PUBLIC "-//W3C//DTD SVG 1.1//EN" "http://www.w3.org/Graphics/SVG/1.1/DTD/svg11.dtd">
<svg xmlns="http://www.w3.org/2000/svg" xmlns:xlink="http://www.w3.org/1999/xlink" version="1.1" width="614.4pt" height="614.4pt" viewBox="0 0 614.4 614.4">
<g enable-background="new">
<g>
<path transform="matrix(1,0,0,-1,0,614.4)" d="M 134.359 110.67 C 134.359 117.088 132.016 122.638 127.328 127.326 C 122.637 132.013 117.086 134.361 110.672 134.361 C 104.254 134.361 98.703 132.013 94.016 127.326 C 89.324 122.638 86.98 117.088 86.98 110.67 C 86.98 104.255 89.324 98.701 94.016 94.013 C 98.703 89.326 104.254 86.982 110.672 86.982 C 117.086 86.982 122.637 89.326 127.328 94.013 C 132.016 98.701 134.359 104.255 134.359 110.67 Z M 372.727 266.127 L 120.293 13.697 C 111.164 4.564 100.059 .002 86.98 .002 C 74.152 .002 62.922 4.564 53.301 13.697 L 14.066 53.67 C 4.688 62.552 0 73.658 0 86.982 C 0 100.06 4.688 111.287 14.066 120.666 L 266.129 372.724 C 275.75 348.545 289.879 327.138 308.508 308.509 C 327.137 289.877 348.543 275.752 372.727 266.127 Z M 607.391 427.134 C 607.391 417.513 604.555 404.435 598.879 387.9 C 587.281 354.838 566.984 328.002 537.992 307.396 C 508.996 286.795 477.105 276.49 442.312 276.49 C 396.66 276.49 357.613 292.716 325.164 325.166 C 292.715 357.611 276.492 396.662 276.492 442.31 C 276.492 487.963 292.715 527.009 325.164 559.459 C 357.613 591.908 396.66 608.13 442.312 608.13 C 456.625 608.13 471.613 606.095 487.281 602.025 C 502.953 597.955 516.215 592.216 527.074 584.814 C 531.02 582.099 532.996 578.646 532.996 574.451 C 532.996 570.255 531.02 566.798 527.074 564.088 L 418.621 501.533 L 418.621 418.623 L 490.059 379.017 C 491.293 379.759 501.039 385.744 519.301 396.97 C 537.559 408.197 554.277 418.189 569.453 426.951 C 584.629 435.713 593.328 440.091 595.547 440.091 C 599.25 440.091 602.148 438.857 604.246 436.388 C 606.344 433.923 607.391 430.838 607.391 427.134 Z M 607.391 427.134 " fill="#e2e3e4"/>
</g>
</g>
</svg>
